<svg xmlns="http://www.w3.org/2000/svg" width="43" height="43" viewBox="0 0 43 43"><defs><style>.a{fill:#363c49;}.b{fill:#bfc6d9;}</style></defs><g transform="translate(-1853 -10)"><rect class="a" width="43" height="43" rx="21.5" transform="translate(1853 10)"/><g transform="translate(1867.118 -220.481)"><path class="b" d="M35.407,246.479a5.491,5.491,0,1,1-5.491-5.491A5.491,5.491,0,0,1,35.407,246.479Zm0,0" transform="translate(-22.534)"/><path class="b" d="M7.382,382.8A7.382,7.382,0,0,0,0,390.187v1.461a1.161,1.161,0,0,0,1.162,1.162H13.6a1.162,1.162,0,0,0,1.162-1.162v-1.461A7.383,7.383,0,0,0,7.382,382.8Zm0,0" transform="translate(0 -130.835)"/></g></g></svg>