<svg xmlns="http://www.w3.org/2000/svg" width="29" height="27.132" viewBox="0 0 29 27.132"><defs><style>.a{fill:#363c49;stroke:#363c49;}</style></defs><g transform="translate(0.5 0.434)"><path class="a" d="M27.059,1A3.159,3.159,0,0,0,24.813.066h0L3.176.08A3.181,3.181,0,0,0,0,3.26l.009,14.6a3.178,3.178,0,0,0,3.178,3.176h0l7.122,0L13.2,25.8l.006.01a.841.841,0,0,0,.712.39h0a.84.84,0,0,0,.711-.391l.006-.009,2.881-4.774,7.311,0A3.177,3.177,0,0,0,28,17.839l-.009-14.6A3.157,3.157,0,0,0,27.059,1ZM24.824,20.072l-7.578,0a.473.473,0,0,0-.4.229l-2.926,4.85-2.932-4.846a.474.474,0,0,0-.405-.228l-7.389,0h0a2.231,2.231,0,0,1-2.231-2.23L.947,3.259a2.234,2.234,0,0,1,2.23-2.232l21.635-.014h0a2.234,2.234,0,0,1,2.231,2.23l.009,14.6a2.234,2.234,0,0,1-2.23,2.233Zm0,0" transform="translate(0 0)"/><path class="a" d="M90.28,196.313H73.039a.473.473,0,0,0,0,.947H90.28a.473.473,0,1,0,0-.947Zm0,0" transform="translate(-67.66 -182.978)"/><path class="a" d="M90.28,146.313H73.039a.473.473,0,1,0,0,.947H90.28a.473.473,0,1,0,0-.947Zm0,0" transform="translate(-67.66 -136.359)"/><path class="a" d="M90.28,96.313H73.039a.473.473,0,1,0,0,.947H90.28a.473.473,0,1,0,0-.947Zm0,0" transform="translate(-67.66 -89.739)"/></g></svg>