<svg xmlns="http://www.w3.org/2000/svg" width="37.05" height="48.64" viewBox="0 0 37.05 48.64"><defs><style>.a{fill:#4596b4;}</style></defs><g transform="translate(0 0)"><path class="a" d="M109.95,8.55H90V2.85h5.943a4.276,4.276,0,0,1,8.063,0h5.943Zm0,0" transform="translate(-81.45 0)"/><path class="a" d="M101.453,262.569l-1.008,3.023,3.023-1.008,10.725-10.723-2.017-2.016Zm0,0" transform="translate(-90.903 -227.919)"/><path class="a" d="M245.141,205.816l2.016,2.016,2.605-2.607-2.015-2.015Zm0,0" transform="translate(-221.853 -183.906)"/><path class="a" d="M31.35,30v8.55H5.7V30H0V75.789H37.05V30ZM14.1,66.306,5.036,69.328l3.023-9.068L25.895,42.425,31.94,48.47Zm0,0" transform="translate(0 -27.15)"/></g></svg>