<svg xmlns="http://www.w3.org/2000/svg" width="40" height="40" viewBox="0 0 40 40"><defs><style>.a{fill:#ecedf2;}.b{fill:#2b303b;}</style></defs><g transform="translate(-1242 -728)"><rect class="a" width="40" height="40" rx="19" transform="translate(1242 728)"/><g transform="translate(1251.091 737.422)"><g transform="translate(7.114 0)"><g transform="translate(0 0)"><path class="b" d="M184.75,1.452a4.959,4.959,0,0,0-7.012,0L173.593,5.6a5.005,5.005,0,0,0,0,7.012,4.719,4.719,0,0,0,1,.756l.756-.756a1.7,1.7,0,0,0,.313-1.495,2.394,2.394,0,0,1-.313-.258,2.506,2.506,0,0,1,0-3.506l4.144-4.144A2.479,2.479,0,1,1,183,6.712l-2.739,2.739a7.136,7.136,0,0,1,.31,3.189c.012-.012.026-.019.038-.031l4.144-4.144A4.959,4.959,0,0,0,184.75,1.452Z" transform="translate(-172.159 0)"/></g></g><g transform="translate(0 7.47)"><g transform="translate(0)"><path class="b" d="M12.931,181.532a4.72,4.72,0,0,0-1-.756l-.756.756a1.7,1.7,0,0,0-.313,1.495,2.389,2.389,0,0,1,.313.258,2.506,2.506,0,0,1,0,3.506l-4.465,4.465a2.479,2.479,0,0,1-3.506-3.506l3.061-3.061a7.135,7.135,0,0,1-.31-3.189c-.012.012-.026.019-.038.031L1.453,186a4.959,4.959,0,0,0,7.012,7.012l4.465-4.465A5,5,0,0,0,12.931,181.532Z" transform="translate(0 -180.776)"/></g></g></g></g></svg>