<svg xmlns="http://www.w3.org/2000/svg" width="40" height="40" viewBox="0 0 40 40"><defs><style>.a{fill:#ecedf2;}.b{fill:#2b303b;}</style></defs><g transform="translate(-1340 -728)"><rect class="a" width="40" height="40" rx="19" transform="translate(1340 728)"/><g transform="translate(1350 738)"><path class="b" d="M18.867,0H1.952A1.952,1.952,0,0,0,0,1.952V18.867a1.952,1.952,0,0,0,1.952,1.952H18.867a1.952,1.952,0,0,0,1.952-1.952V1.952A1.952,1.952,0,0,0,18.867,0Zm.651,18.867a.651.651,0,0,1-.651.651H1.952a.651.651,0,0,1-.651-.651V1.952A.651.651,0,0,1,1.952,1.3H18.867a.651.651,0,0,1,.651.651Z"/><path class="b" d="M91.087,241.631a.651.651,0,0,0-.917,0l-1.5,1.5-2.791-2.791a.651.651,0,0,0-.917,0l-4.554,4.554A.651.651,0,0,0,80.866,246H93.878a.651.651,0,0,0,.462-1.112Z" transform="translate(-76.963 -230.382)"/><circle class="b" cx="1.875" cy="1.875" r="1.875" transform="translate(10.501 5.251)"/></g></g></svg>