<svg xmlns="http://www.w3.org/2000/svg" width="22.069" height="22.069" viewBox="0 0 22.069 22.069"><defs><style>.a{fill:#2b303b;}</style></defs><ellipse class="a" cx="2.155" cy="2.155" rx="2.155" ry="2.155" transform="translate(8.901 12.781)"/><path class="a" d="M21.423,0H.647A.647.647,0,0,0,0,.647V16.163a.647.647,0,0,0,.647.647H8.164a3.447,3.447,0,1,1,5.785,0h7.474a.647.647,0,0,0,.647-.647V.647A.647.647,0,0,0,21.423,0ZM8.448,2.629h5.173a.647.647,0,1,1,0,1.293H8.448a.647.647,0,1,1,0-1.293ZM17.5,10.388H4.569a.647.647,0,1,1,0-1.293H17.5a.647.647,0,1,1,0,1.293Zm0-2.586H4.569a.647.647,0,1,1,0-1.293H17.5a.647.647,0,1,1,0,1.293Z" transform="translate(0 0)"/><path class="a" d="M196.749,398.527v4.2a.647.647,0,0,0,1,.539l1.593-1.056,1.593,1.056a.647.647,0,0,0,1-.539v-4.246A3.442,3.442,0,0,1,196.749,398.527Z" transform="translate(-188.268 -381.301)"/></svg>