<svg xmlns="http://www.w3.org/2000/svg" width="47.357" height="48.212" viewBox="0 0 47.357 48.212"><g transform="translate(-321.932 -1004.41)"><g transform="translate(321.932 1004.41)" opacity="0.253"><path d="M29,0V21.992l20.613-7.663A21.992,21.992,0,0,0,29,0Z" transform="translate(-4.481 0)" fill="#fff"/><path d="M17.85,51.043a21,21,0,0,0,13.178-.33A12.687,12.687,0,0,1,45.043,29.719a20.748,20.748,0,0,0-1-5.489L24.591,31.453Z" transform="translate(-2.762 -3.736)" fill="#fff"/><circle cx="1" cy="1" r="1" transform="translate(31.135 32.116)" fill="#fff"/><path d="M13.535,50.96l6.513-19.082L.391,27.26a21.146,21.146,0,0,0,13.144,23.7Z" transform="translate(-0.011 -4.203)" fill="#fff"/><path d="M.93,22.487,20.443,27.08V7A21.027,21.027,0,0,0,.93,22.487Z" transform="translate(-0.153 -1.079)" fill="#fff"/><path d="M41,31a11,11,0,1,0,7.775,3.221A11,11,0,0,0,41,31Zm-6.767,6.767A2.537,2.537,0,1,1,36.767,40.3,2.537,2.537,0,0,1,34.229,37.767Zm2.292,9.9a.849.849,0,0,1-1.2-1.2L45.47,36.32a.849.849,0,0,1,1.2,1.2Zm8.7,1.091a2.537,2.537,0,1,1,2.537-2.537A2.537,2.537,0,0,1,45.225,48.762Z" transform="translate(-4.635 -4.779)" fill="#fff"/><ellipse cx="0.5" cy="1" rx="0.5" ry="1" transform="translate(40.135 40.116)" fill="#fff"/></g></g></svg>