<svg xmlns="http://www.w3.org/2000/svg" width="48.094" height="47.236" viewBox="0 0 48.094 47.236"><defs><style>.a{fill:#bfc6d9;opacity:0.291;}.b{fill:#f8f8f8;stroke:#f8f8f8;}</style></defs><g transform="translate(-1458.911 -116.051)"><rect class="a" width="47.236" height="48.094" rx="23.618" transform="translate(1458.911 163.287) rotate(-90)"/><g transform="translate(1474.622 131.334)"><path class="b" d="M9.312,8.34l7.146-7.146a.694.694,0,0,0-.965-1l-.017.017L8.33,7.358,1.185.212A.694.694,0,0,0,.2,1.194L7.349,8.34.2,15.485a.694.694,0,0,0,.982.982L8.33,9.321l7.146,7.146a.694.694,0,0,0,.982-.982Z" transform="translate(0 0)"/></g></g></svg>