<svg xmlns="http://www.w3.org/2000/svg" width="32.987" height="49.01" viewBox="0 0 32.987 49.01"><defs><style>.a{opacity:0.356;}.b{fill:#fff;}</style></defs><g class="a" transform="translate(0 0)"><path class="b" d="M251.126,290a6.122,6.122,0,0,0-4.241,10.541q.206.2.431.377h0q.111.089.227.172l0,0q.113.082.231.159l.01.007q.114.075.232.144l.018.011q.114.067.232.129l.028.014c.076.039.152.078.229.114l.04.018c.074.034.148.067.224.1l.054.021c.072.029.144.057.217.084l.069.023c.069.024.138.047.209.069l.085.024c.066.019.132.038.2.055l.1.024c.062.014.123.029.185.042l.125.022c.057.01.113.021.17.03s.1.013.15.019.1.014.151.019.124.01.186.014l.12.009q.154.008.31.008t.31-.008c.04,0,.08-.006.12-.009.062,0,.125-.008.186-.014s.1-.012.151-.019.1-.012.15-.019.114-.02.17-.03l.125-.022c.062-.013.124-.027.185-.042l.1-.024c.067-.017.133-.036.2-.055l.085-.024c.07-.021.14-.045.209-.069l.069-.023c.073-.026.145-.055.217-.084l.054-.021c.076-.031.15-.064.224-.1l.04-.018c.077-.036.153-.075.229-.114l.028-.014q.117-.062.232-.129l.018-.011q.118-.07.232-.144l.01-.007q.117-.077.231-.159l0,0q.115-.083.226-.172h0q.224-.179.431-.377A6.122,6.122,0,0,0,251.126,290Z" transform="translate(-229.92 -262.668)"/><path class="b" d="M116.574,0H86.414A1.414,1.414,0,0,0,85,1.414V41.47a1.414,1.414,0,0,0,1.414,1.414H99.137V38.962a8.857,8.857,0,0,1-1.885-5.5,8.954,8.954,0,1,1,17.907,0,8.857,8.857,0,0,1-1.885,5.5v3.921h3.3a1.414,1.414,0,0,0,1.414-1.414V1.414A1.414,1.414,0,0,0,116.574,0Zm-24.5,6.126h5.655a1.414,1.414,0,0,1,0,2.827H92.069a1.414,1.414,0,1,1,0-2.827Zm18.85,16.965h-5.655a1.414,1.414,0,1,1,0-2.827h5.655a1.414,1.414,0,0,1,0,2.827Zm0-4.712H92.069a1.414,1.414,0,1,1,0-2.827h18.85a1.414,1.414,0,0,1,0,2.827Zm0-4.712H92.069a1.414,1.414,0,1,1,0-2.827h18.85a1.414,1.414,0,0,1,0,2.827Z" transform="translate(-85 0)"/><path class="b" d="M265,438.647V444.9a1.414,1.414,0,0,0,2.2,1.176l2.043-1.362,2.043,1.362a1.414,1.414,0,0,0,2.2-1.176v-6.254a8.941,8.941,0,0,1-8.482,0Z" transform="translate(-248.035 -397.305)"/></g></svg>