<svg xmlns="http://www.w3.org/2000/svg" width="15.747" height="13.122" viewBox="0 0 15.747 13.122"><defs><style>.a{fill:#fff;}</style></defs><g transform="translate(0 -2)"><path class="a" d="M9.937,11.186a.491.491,0,0,1-.356-.152L6.136,7.425a.492.492,0,0,1,.356-.832H8.3V2.82A.821.821,0,0,1,9.116,2h1.64a.821.821,0,0,1,.82.82V6.593h1.8a.492.492,0,0,1,.356.832l-3.445,3.609A.491.491,0,0,1,9.937,11.186Z" transform="translate(-2.063 0)"/><path class="a" d="M14.6,20.624H1.148A1.149,1.149,0,0,1,0,19.476v-.328A1.149,1.149,0,0,1,1.148,18H14.6a1.149,1.149,0,0,1,1.148,1.148v.328A1.149,1.149,0,0,1,14.6,20.624Z" transform="translate(0 -5.502)"/></g></svg>