<svg xmlns="http://www.w3.org/2000/svg" width="26.199" height="19.302" viewBox="0 0 26.199 19.302"><defs><style>.a{fill:#2d6a9f;}</style></defs><g transform="translate(0 -57.088)"><g transform="translate(0 62.532)"><g transform="translate(0 0)"><path class="a" d="M13.858,154.716a1.489,1.489,0,0,1-1.547,0L0,147.2v9.991a3.868,3.868,0,0,0,3.866,3.866H22.333a3.868,3.868,0,0,0,3.866-3.866V147.2Z" transform="translate(0 -147.2)"/></g></g><g transform="translate(0.124 57.088)"><g transform="translate(0 0)"><path class="a" d="M24.257,57.088H5.791a3.844,3.844,0,0,0-3.743,3.031l12.991,7.919L28,60.119A3.844,3.844,0,0,0,24.257,57.088Z" transform="translate(-2.048 -57.088)"/></g></g></g></svg>