<svg xmlns="http://www.w3.org/2000/svg" width="30.836" height="30.836" viewBox="0 0 30.836 30.836"><path d="M0,0H30.836V30.836H0ZM0,0H30.836V30.836H0ZM0,0H30.836V30.836H0ZM0,0H30.836V30.836H0Z" fill="none"/><path d="M15.133,8.139a6.426,6.426,0,0,1,6.424,6.424,6.235,6.235,0,0,1-.463,2.351l3.752,3.752a15.183,15.183,0,0,0,4.407-6.1A15.2,15.2,0,0,0,15.12,4.927a14.962,14.962,0,0,0-5.114.9L12.782,8.6A6.236,6.236,0,0,1,15.133,8.139ZM2.285,4.632,5.214,7.561l.591.591A15.166,15.166,0,0,0,1,14.563,15.189,15.189,0,0,0,20.761,23.12l.54.54,3.765,3.752L26.7,25.78,3.917,3ZM9.39,11.737l1.991,1.991a3.625,3.625,0,0,0-.1.835,3.849,3.849,0,0,0,3.854,3.854,3.625,3.625,0,0,0,.835-.1l1.991,1.991a6.382,6.382,0,0,1-8.57-8.57Zm5.538-1,4.047,4.047L19,14.576a3.849,3.849,0,0,0-3.854-3.854Z" transform="translate(0.285 0.854)" fill="#bfc6d9"/></svg>