<svg xmlns="http://www.w3.org/2000/svg" width="30.061" height="17.919" viewBox="0 0 30.061 17.919"><defs><style>.a{fill:#bfc6d9;}</style></defs><g transform="translate(0 -98.725)"><path class="a" d="M15.031,98.725c-5.744,0-10.952,3.142-14.8,8.246a1.19,1.19,0,0,0,0,1.421c3.843,5.11,9.052,8.252,14.8,8.252s10.952-3.142,14.8-8.246a1.19,1.19,0,0,0,0-1.421C25.983,101.867,20.774,98.725,15.031,98.725Zm.412,15.269a6.323,6.323,0,1,1,5.9-5.9A6.326,6.326,0,0,1,15.443,113.994Zm-.191-2.915a3.4,3.4,0,1,1,3.179-3.179A3.4,3.4,0,0,1,15.252,111.079Z" transform="translate(0 0)"/></g></svg>