<svg xmlns="http://www.w3.org/2000/svg" width="29" height="29" viewBox="0 0 29 29"><defs><style>.a{fill:#363c49;stroke:#363c49;}</style></defs><g transform="translate(0.5 0.501)"><path class="a" d="M14,28a13.92,13.92,0,0,1-7.7-2.3l-4.812,1.5a.547.547,0,0,1-.684-.684l1.5-4.812A14,14,0,0,1,23.9,4.1,14,14,0,0,1,14,28ZM6.393,24.549a.547.547,0,0,1,.31.1A12.905,12.905,0,1,0,3.354,21.3a.547.547,0,0,1,.071.472L2.161,25.838,6.23,24.573a.549.549,0,0,1,.162-.025Zm0,0"/><path class="a" d="M117.637,149.547a.546.546,0,0,1-.307-.095,36.243,36.243,0,0,1-3.793-3.043c-2.591-2.4-3.9-4.461-3.9-6.136A5.088,5.088,0,0,1,114.5,135a4.668,4.668,0,0,1,3.138,1.243A4.668,4.668,0,0,1,120.775,135a5.088,5.088,0,0,1,4.867,5.273c0,1.675-1.314,3.739-3.9,6.136a36.228,36.228,0,0,1-3.793,3.043A.546.546,0,0,1,117.637,149.547ZM114.5,136.094a4,4,0,0,0-3.773,4.179c0,2.63,4.726,6.518,6.911,8.061,2.184-1.544,6.911-5.434,6.911-8.061a4,4,0,0,0-3.773-4.179,3.576,3.576,0,0,0-2.724,1.289.547.547,0,0,1-.827,0,3.576,3.576,0,0,0-2.724-1.289Zm0,0" transform="translate(-103.637 -127.618)"/><path class="a" d="M246.581,54.094h-.034a.547.547,0,0,1,0-1.094h.035a.547.547,0,0,1,0,1.094Zm0,0" transform="translate(-232.547 -50.102)"/><path class="a" d="M289.791,60.686a.545.545,0,0,1-.386-.16,9.959,9.959,0,0,0-5.108-2.734.547.547,0,0,1,.213-1.073,11.049,11.049,0,0,1,5.668,3.033.547.547,0,0,1-.386.934Zm0,0" transform="translate(-268.333 -53.608)"/></g></svg>