<svg xmlns="http://www.w3.org/2000/svg" width="34.094" height="33.237" viewBox="0 0 34.094 33.237"><defs><style>.a{fill:#bfc6d9;opacity:0.291;}.b{fill:#2b303b;}</style></defs><g transform="translate(-1483.255 -236.382)"><rect class="a" width="33.236" height="34.094" rx="16.618" transform="translate(1483.255 269.618) rotate(-90)"/><g transform="translate(-6764.278 -104.611)"><path class="b" d="M82.727,370.941H65.111a.751.751,0,0,1,0-1.5H82.727A.751.751,0,0,1,82.727,370.941Z" transform="translate(8190.699 -6.174)"/><path class="b" d="M264.808,370.941H256v-1.5h8.808A.751.751,0,0,1,264.808,370.941Z" transform="translate(8008.618 -6.174)"/><path class="b" d="M81.221,240.941H63.6a.751.751,0,0,1,0-1.5H81.221A.751.751,0,0,1,81.221,240.941Z" transform="translate(8192.13 117.346)"/><path class="b" d="M264.733,240.941H256v-1.5h8.733A.751.751,0,0,1,264.733,240.941Z" transform="translate(8008.618 117.346)"/><path class="b" d="M81.221,112.432H63.6a.751.751,0,0,1,0-1.5H81.221A.751.751,0,0,1,81.221,112.432Z" transform="translate(8192.13 239.45)"/><path class="b" d="M264.733,112.432H256v-1.5h8.733A.751.751,0,0,1,264.733,112.432Z" transform="translate(8008.618 239.45)"/><circle class="b" cx="2.352" cy="2.352" r="2.352" transform="translate(8267.07 355.259)"/><path class="b" d="M354.729,211.167a2.355,2.355,0,0,1-2.352,2.352v-4.7A2.355,2.355,0,0,1,354.729,211.167Z" transform="translate(7917.045 146.444)"/><circle class="b" cx="2.352" cy="2.352" r="2.352" transform="translate(8260.664 361.665)"/><path class="b" d="M226.227,339.669a2.355,2.355,0,0,1-2.352,2.352v-4.7A2.355,2.355,0,0,1,226.227,339.669Z" transform="translate(8039.142 24.348)"/><circle class="b" cx="2.352" cy="2.352" r="2.352" transform="translate(8257.462 348.853)"/><path class="b" d="M162.93,82.685a2.354,2.354,0,0,1-2.3,2.351v-4.7A2.354,2.354,0,0,1,162.93,82.685Z" transform="translate(8099.236 268.52)"/></g></g></svg>