<svg xmlns="http://www.w3.org/2000/svg" width="19.181" height="17.516" viewBox="0 0 19.181 17.516"><g transform="translate(-8254.99 -348.853)"><path d="M82.727,370.941H65.111a.751.751,0,0,1,0-1.5H82.727A.751.751,0,0,1,82.727,370.941Z" transform="translate(8190.699 -6.174)" fill="#2b303b"/><path d="M264.808,370.941H256v-1.5h8.808A.751.751,0,0,1,264.808,370.941Z" transform="translate(8008.618 -6.174)" fill="#2b303b"/><path d="M81.221,240.941H63.6a.751.751,0,0,1,0-1.5H81.221A.751.751,0,0,1,81.221,240.941Z" transform="translate(8192.13 117.346)" fill="#2b303b"/><path d="M264.733,240.941H256v-1.5h8.733A.751.751,0,0,1,264.733,240.941Z" transform="translate(8008.618 117.346)" fill="#2b303b"/><path d="M81.221,112.432H63.6a.751.751,0,0,1,0-1.5H81.221A.751.751,0,0,1,81.221,112.432Z" transform="translate(8192.13 239.45)" fill="#2b303b"/><path d="M264.733,112.432H256v-1.5h8.733A.751.751,0,0,1,264.733,112.432Z" transform="translate(8008.618 239.45)" fill="#2b303b"/><circle cx="2.352" cy="2.352" r="2.352" transform="translate(8267.07 355.259)" fill="#2b303b"/><path d="M354.729,211.167a2.355,2.355,0,0,1-2.352,2.352v-4.7A2.355,2.355,0,0,1,354.729,211.167Z" transform="translate(7917.045 146.444)" fill="#2b303b"/><circle cx="2.352" cy="2.352" r="2.352" transform="translate(8260.664 361.665)" fill="#2b303b"/><path d="M226.227,339.669a2.355,2.355,0,0,1-2.352,2.352v-4.7A2.355,2.355,0,0,1,226.227,339.669Z" transform="translate(8039.142 24.348)" fill="#2b303b"/><circle cx="2.352" cy="2.352" r="2.352" transform="translate(8257.462 348.853)" fill="#2b303b"/><path d="M162.93,82.685a2.354,2.354,0,0,1-2.3,2.351v-4.7A2.354,2.354,0,0,1,162.93,82.685Z" transform="translate(8099.236 268.52)" fill="#2b303b"/></g></svg>