<svg xmlns="http://www.w3.org/2000/svg" width="22.069" height="17.452" viewBox="0 0 22.069 17.452"><defs><style>.a{fill:#2b303b;}</style></defs><g transform="translate(0 -42.679)"><g transform="translate(0 44.985)"><g transform="translate(0 0)"><path class="a" d="M17.958,87.3H10L8.412,85.416a.271.271,0,0,0-.216-.1H1.772A1.785,1.785,0,0,0,0,87.1V98.681a1.785,1.785,0,0,0,1.783,1.783H17.958a1.785,1.785,0,0,0,1.783-1.783v-9.6A1.785,1.785,0,0,0,17.958,87.3Z" transform="translate(0 -85.319)"/></g></g><g transform="translate(2.348 42.679)"><g transform="translate(0 0)"><path class="a" d="M61.35,44.658H53.385L51.8,42.776a.271.271,0,0,0-.216-.1H45.163A1.783,1.783,0,0,0,43.4,44.219h5.857a1.036,1.036,0,0,1,.8.37L51.406,46.2h7.605a2.553,2.553,0,0,1,2.549,2.549v9.061a1.783,1.783,0,0,0,1.562-1.768v-9.6A1.785,1.785,0,0,0,61.35,44.658Z" transform="translate(-43.4 -42.679)"/></g></g></g></svg>