<svg xmlns="http://www.w3.org/2000/svg" width="33.301" height="26.334" viewBox="0 0 33.301 26.334">
  <g id="folder_2_" data-name="folder (2)" transform="translate(0 -42.679)">
    <g id="Group_4025" data-name="Group 4025" transform="translate(0 46.159)">
      <g id="Group_4024" data-name="Group 4024" transform="translate(0 0)">
        <path id="Path_5598" data-name="Path 5598" d="M27.1,88.306H15.083l-2.39-2.84a.408.408,0,0,0-.326-.147H2.674A2.693,2.693,0,0,0,0,88.012v17.47a2.693,2.693,0,0,0,2.69,2.69H27.1a2.693,2.693,0,0,0,2.69-2.69V91A2.693,2.693,0,0,0,27.1,88.306Z" transform="translate(0 -85.319)" fill="#363c49"/>
      </g>
    </g>
    <g id="Group_4027" data-name="Group 4027" transform="translate(3.542 42.679)">
      <g id="Group_4026" data-name="Group 4026">
        <path id="Path_5599" data-name="Path 5599" d="M70.485,45.666H58.467l-2.39-2.84a.408.408,0,0,0-.326-.147h-9.69A2.69,2.69,0,0,0,43.4,45h8.838a1.564,1.564,0,0,1,1.2.558l2.041,2.426H66.956A3.853,3.853,0,0,1,70.8,51.833V65.506a2.69,2.69,0,0,0,2.357-2.667V48.353A2.693,2.693,0,0,0,70.485,45.666Z" transform="translate(-43.4 -42.679)" fill="#363c49"/>
      </g>
    </g>
  </g>
</svg>
