<svg xmlns="http://www.w3.org/2000/svg" width="27.069" height="21.406" viewBox="0 0 27.069 21.406"><defs><style>.a{fill:#fff;}</style></defs><g transform="translate(0 -42.679)"><g transform="translate(0 45.508)"><g transform="translate(0 0)"><path class="a" d="M22.027,87.747H12.261l-1.943-2.309a.332.332,0,0,0-.265-.119H2.173A2.189,2.189,0,0,0,0,87.508v14.2A2.189,2.189,0,0,0,2.187,103.9h19.84a2.189,2.189,0,0,0,2.187-2.187V89.934A2.189,2.189,0,0,0,22.027,87.747Z" transform="translate(0 -85.319)"/></g></g><g transform="translate(2.879 42.679)"><g transform="translate(0 0)"><path class="a" d="M65.416,45.107H55.647L53.7,42.8a.332.332,0,0,0-.265-.119H45.563a2.187,2.187,0,0,0-2.163,1.89h7.184a1.271,1.271,0,0,1,.977.454l1.659,1.972h9.328a3.132,3.132,0,0,1,3.126,3.126V61.234a2.187,2.187,0,0,0,1.916-2.168V47.291A2.189,2.189,0,0,0,65.416,45.107Z" transform="translate(-43.4 -42.679)"/></g></g></g></svg>