<svg xmlns="http://www.w3.org/2000/svg" width="17.516" height="17.516" viewBox="0 0 17.516 17.516"><defs><style>.a{fill:#2b303b;}</style></defs><path class="a" d="M7.411,0H.674A.674.674,0,0,0,0,.674V7.411a.674.674,0,0,0,.674.674H7.411a.674.674,0,0,0,.674-.674V.674A.674.674,0,0,0,7.411,0Z"/><path class="a" d="M153.7,0h-6.737a.674.674,0,0,0-.674.674V7.411a.674.674,0,0,0,.674.674H153.7a.674.674,0,0,0,.674-.674V.674A.674.674,0,0,0,153.7,0Z" transform="translate(-136.853)"/><path class="a" d="M7.411,146.286H.674A.674.674,0,0,0,0,146.96V153.7a.674.674,0,0,0,.674.674H7.411a.674.674,0,0,0,.674-.674V146.96A.674.674,0,0,0,7.411,146.286Z" transform="translate(0 -136.854)"/><path class="a" d="M153.7,146.286h-6.737a.674.674,0,0,0-.674.674V153.7a.674.674,0,0,0,.674.674H153.7a.674.674,0,0,0,.674-.674V146.96A.674.674,0,0,0,153.7,146.286Z" transform="translate(-136.853 -136.854)"/></svg>