<?xml version="1.0" standalone="no"?>
<!DOCTYPE svg PUBLIC "-//W3C//DTD SVG 20010904//EN"
 "http://www.w3.org/TR/2001/REC-SVG-20010904/DTD/svg10.dtd">
<svg version="1.0" xmlns="http://www.w3.org/2000/svg"
 width="225.000000pt" height="225.000000pt" viewBox="0 0 225.000000 225.000000"
 preserveAspectRatio="xMidYMid meet">
<metadata>
Created by potrace 1.16, written by Peter Selinger 2001-2019
</metadata>
<g transform="translate(0.000000,225.000000) scale(0.100000,-0.100000)"
fill="#bcbdc0" stroke="none">
<path d="M90 2228 c-33 -17 -51 -35 -67 -68 -20 -39 -23 -59 -23 -177 0 -149
8 -180 59 -228 l32 -30 167 -3 c153 -2 170 -1 200 18 66 41 73 65 70 252 l-3
167 -30 32 c-48 51 -79 59 -228 59 -118 0 -138 -3 -177 -22z"/>
<path d="M966 2240 c-16 -5 -40 -19 -54 -32 -44 -41 -52 -76 -52 -229 0 -161
10 -195 69 -235 34 -23 43 -24 196 -24 153 0 162 1 196 24 62 42 71 75 67 251
-3 167 -8 181 -72 229 -24 19 -43 21 -174 23 -81 1 -160 -2 -176 -7z"/>
<path d="M1805 2230 c-74 -38 -80 -53 -83 -240 -3 -185 4 -209 70 -250 30 -19
47 -20 200 -18 l167 3 32 30 c51 48 59 79 59 228 0 118 -3 138 -22 177 -17 33
-35 51 -68 68 -39 20 -59 22 -180 22 -116 0 -141 -3 -175 -20z"/>
<path d="M80 1368 c-71 -49 -75 -61 -75 -243 0 -150 2 -166 21 -191 47 -64 62
-69 229 -72 176 -4 209 5 251 67 23 34 24 43 24 196 0 153 -1 162 -24 196 -41
60 -73 69 -244 69 -138 0 -151 -2 -182 -22z"/>
<path d="M939 1368 c-67 -38 -79 -75 -79 -243 0 -169 12 -206 80 -244 34 -19
54 -21 185 -21 131 0 151 2 185 21 68 38 80 75 80 244 0 169 -12 206 -80 244
-34 19 -53 21 -186 21 -133 0 -153 -3 -185 -22z"/>
<path d="M1802 1373 c-19 -9 -44 -32 -58 -52 -23 -34 -24 -43 -24 -196 0 -153
1 -162 24 -196 42 -62 75 -71 251 -67 167 3 182 8 229 72 19 25 21 41 21 191
0 182 -4 194 -75 243 -31 20 -44 22 -184 22 -119 0 -158 -4 -184 -17z"/>
<path d="M95 520 c-31 -13 -66 -50 -81 -86 -10 -23 -14 -75 -14 -167 0 -118 3
-138 22 -177 17 -33 35 -51 68 -67 39 -20 59 -23 177 -23 149 0 180 8 228 59
l30 32 3 167 c2 153 1 170 -18 200 -40 64 -67 72 -240 71 -85 0 -164 -4 -175
-9z"/>
<path d="M930 508 c-63 -44 -71 -73 -68 -250 3 -171 7 -184 72 -232 25 -19 41
-21 191 -21 150 0 166 2 191 21 65 48 69 61 72 232 3 177 -5 206 -68 250 -31
21 -43 22 -195 22 -152 0 -164 -1 -195 -22z"/>
<path d="M1792 510 c-66 -41 -73 -65 -70 -252 l3 -167 30 -32 c48 -51 79 -59
228 -59 118 0 138 3 177 23 33 16 51 34 68 67 20 39 22 59 22 179 0 115 -3
141 -20 175 -37 75 -53 81 -240 84 -151 2 -168 1 -198 -18z"/>
</g>
</svg>
