<svg xmlns="http://www.w3.org/2000/svg" width="21.185" height="21.185" viewBox="0 0 21.185 21.185"><g transform="translate(0.001 -0.002)"><g transform="translate(-0.001 0.002)"><path d="M21.049,10.268,18.286,7.505a.461.461,0,0,0-.787.326V9.213H11.973V3.686h1.382a.461.461,0,0,0,.326-.787L10.917.137a.461.461,0,0,0-.651,0L7.5,2.9a.461.461,0,0,0,.325.787H9.21V9.213H3.683V7.831A.461.461,0,0,0,2.9,7.505L.134,10.268a.461.461,0,0,0,0,.651L2.9,13.683a.461.461,0,0,0,.787-.325V11.976H9.21V17.5H7.828a.461.461,0,0,0-.326.787l2.763,2.763a.462.462,0,0,0,.652,0l2.763-2.763a.461.461,0,0,0-.326-.787H11.973V11.976H17.5v1.382a.461.461,0,0,0,.787.326l2.763-2.763A.462.462,0,0,0,21.049,10.268Z" transform="translate(0.001 -0.002)" fill="#2b303b"/></g></g></svg>