<svg xmlns="http://www.w3.org/2000/svg" width="256.264" height="256.264" viewBox="0 0 256.264 256.264"><g transform="translate(-764.371 -505.236)"><g transform="translate(752.445 286.236)"><circle cx="128.132" cy="128.132" r="128.132" transform="translate(11.926 219)" fill="#fff"/><text transform="translate(72.556 391.085)" fill="#2d6a9f" font-size="16" font-family="Poppins-Bold, Poppins" font-weight="700"><tspan x="13.044" y="17">No Questions </tspan><tspan x="40.38" y="42">Added</tspan></text></g><g transform="translate(845 549.752)"><path d="M95.2,34.508V73.093a7.016,7.016,0,0,1-7.016,7.016H11.016A7.016,7.016,0,0,1,4,73.093V34.508A3.518,3.518,0,0,1,7.508,31H28.554a3.531,3.531,0,0,1,2.806,1.4l3.157,4.209a3.531,3.531,0,0,0,2.806,1.4H61.878a3.531,3.531,0,0,0,2.806-1.4L67.841,32.4A3.531,3.531,0,0,1,70.648,31H91.694A3.518,3.518,0,0,1,95.2,34.508Z" transform="translate(-2.247 23.37)" fill="#e8edfc"/><path d="M57.769,31H52.508a3.518,3.518,0,0,1,3.508,3.508V73.093A7.016,7.016,0,0,1,49,80.109h5.262a7.016,7.016,0,0,0,7.016-7.016V34.508A3.518,3.518,0,0,0,57.769,31Z" transform="translate(31.678 23.37)" fill="#bec5db"/><path d="M87.679,21.45V53.617H68.386a3.531,3.531,0,0,0-2.806,1.4l-3.157,4.209a3.531,3.531,0,0,1-2.806,1.4H35.062a3.531,3.531,0,0,1-2.806-1.4L29.1,55.02a3.531,3.531,0,0,0-2.806-1.4H7V8.016A7.016,7.016,0,0,1,14.016,1H67.228a7.117,7.117,0,0,1,2.911.631v13.4a3.518,3.518,0,0,0,3.508,3.508h13.4a7.118,7.118,0,0,1,.631,2.911Z" transform="translate(0.015 0.754)" fill="#e8edfc"/><path d="M54.9,11H49.64a7.117,7.117,0,0,1,.631,2.911V46.078h5.262V13.911A7.118,7.118,0,0,0,54.9,11Z" transform="translate(32.161 8.293)" fill="#bec5db"/><path d="M59.907,18.267h-13.4A3.518,3.518,0,0,1,43,14.76V1.36a7.172,7.172,0,0,1,2.052,1.421L58.487,16.215A7.172,7.172,0,0,1,59.907,18.267Z" transform="translate(27.155 1.025)" fill="#e8edfc"/><ellipse cx="3.344" cy="3.716" rx="3.344" ry="3.716" transform="translate(28.031 77.141)" fill="#e8edfc"/><ellipse cx="3.344" cy="3.716" rx="3.344" ry="3.716" transform="translate(59.988 77.141)" fill="#e8edfc"/><path d="M4,95.71a7.016,7.016,0,0,0,7.016,7.016h5.262A7.016,7.016,0,0,1,9.262,95.71V57.124a3.518,3.518,0,0,1,3.508-3.508h1.754V8.016A7.016,7.016,0,0,1,21.539,1H16.277A7.016,7.016,0,0,0,9.262,8.016v45.6H7.508A3.518,3.518,0,0,0,4,57.124Z" transform="translate(-2.247 0.754)" fill="#fff"/><path d="M6,5H9.508V19.031H6Z" transform="translate(-0.739 3.769)" fill="#fff"/><g transform="translate(-0.001 0)"><ellipse cx="2.044" cy="1.672" rx="2.044" ry="1.672" transform="translate(4.993 14.343)" fill="#4596b4"/><path d="M3,96.464a8.78,8.78,0,0,0,8.769,8.769H88.94a8.78,8.78,0,0,0,8.769-8.769V57.878a5.262,5.262,0,0,0-5.262-5.262V22.2A8.715,8.715,0,0,0,89.879,16L76.449,2.569A8.713,8.713,0,0,0,70.249,0H17.031A8.78,8.78,0,0,0,8.262,8.769a1.754,1.754,0,1,0,3.508,0,5.262,5.262,0,0,1,5.262-5.262H70.249a5.179,5.179,0,0,1,1.152.14V15.785a5.262,5.262,0,0,0,5.262,5.262H88.8A5.262,5.262,0,0,1,88.94,22.2V52.617H71.4a5.292,5.292,0,0,0-4.209,2.1l-3.157,4.209a1.766,1.766,0,0,1-1.4.7H38.078a1.764,1.764,0,0,1-1.4-.7l-3.157-4.209a5.288,5.288,0,0,0-4.209-2.1H11.769V22.8a1.754,1.754,0,1,0-3.508,0V52.617A5.262,5.262,0,0,0,3,57.878ZM76.663,17.539a1.754,1.754,0,0,1-1.754-1.754v-9.8L86.46,17.539ZM6.508,57.878a1.754,1.754,0,0,1,1.754-1.754H29.308a1.764,1.764,0,0,1,1.4.7l3.157,4.209a5.288,5.288,0,0,0,4.209,2.1H62.632a5.291,5.291,0,0,0,4.209-2.1L70,56.826a1.766,1.766,0,0,1,1.4-.7H92.448A1.754,1.754,0,0,1,94.2,57.878V96.464a5.262,5.262,0,0,1-5.262,5.262H11.769a5.262,5.262,0,0,1-5.262-5.262Z" transform="translate(-3 0)" fill="#2d6a9f"/><path d="M8.754,59.016a1.754,1.754,0,0,0,1.754-1.754V53.754a1.754,1.754,0,1,0-3.508,0v3.508A1.754,1.754,0,0,0,8.754,59.016Z" transform="translate(0.016 39.202)" fill="#2d6a9f"/><path d="M8.754,62.062a1.754,1.754,0,0,0,1.754-1.754V35.754a1.754,1.754,0,0,0-3.508,0V60.308A1.754,1.754,0,0,0,8.754,62.062Z" transform="translate(0.016 25.632)" fill="#2d6a9f"/><path d="M52.57,19.785a15.785,15.785,0,0,0-31.57,0,5.262,5.262,0,1,0,10.523,0,5.262,5.262,0,1,1,5.262,5.262,5.262,5.262,0,0,0-5.262,5.262v3.508a5.262,5.262,0,0,0,10.45.877A15.785,15.785,0,0,0,52.57,19.785ZM39.854,31.675l-1.315.34v1.8a1.754,1.754,0,1,1-3.508,0V30.308a1.754,1.754,0,0,1,1.754-1.754,8.769,8.769,0,1,0-8.769-8.769,1.754,1.754,0,1,1-3.508,0,12.277,12.277,0,1,1,15.346,11.89Z" transform="translate(10.57 3.016)" fill="#2d6a9f"/><path d="M32.262,26a5.262,5.262,0,1,0,5.262,5.262A5.262,5.262,0,0,0,32.262,26Zm0,7.016a1.754,1.754,0,1,1,1.754-1.754A1.754,1.754,0,0,1,32.262,33.016Z" transform="translate(15.093 19.601)" fill="#2d6a9f"/></g></g></g></svg>