<svg xmlns="http://www.w3.org/2000/svg" width="43" height="43" viewBox="0 0 43 43"><defs><style>.a{fill:#363c49;}.b{fill:#bfc6d9;}</style></defs><g transform="translate(-1801 -10)"><rect class="a" width="43" height="43" rx="21" transform="translate(1801 10)"/><g transform="translate(1811 20)"><path class="b" d="M21.379,16.913A6.7,6.7,0,0,1,19,11.788V9a7.006,7.006,0,0,0-6-6.92V1a1,1,0,0,0-2,0V2.08A7,7,0,0,0,5,9v2.788a6.705,6.705,0,0,1-2.388,5.133A1.75,1.75,0,0,0,3.75,20h16.5a1.75,1.75,0,0,0,1.129-3.087Z"/><path class="b" d="M12,24a3.756,3.756,0,0,0,3.674-3H8.326A3.756,3.756,0,0,0,12,24Z"/></g></g></svg>