<svg xmlns="http://www.w3.org/2000/svg" width="31.633" height="39.541" viewBox="0 0 31.633 39.541">
  <g id="_2639883_pdf_icon" data-name="2639883_pdf_icon" transform="translate(-5 -3)">
    <path id="Path_5628" data-name="Path 5628" d="M14.339,13.7c-.343,0-.422.117-.474.195a2.16,2.16,0,0,0-.237,1.191,10.75,10.75,0,0,0,.441,2.773,10.59,10.59,0,0,0,.617-3.405C14.66,13.7,14.481,13.7,14.339,13.7Z" transform="translate(5.018 6.224)" fill="#bfc6d9"/>
    <path id="Path_5629" data-name="Path 5629" d="M36.169,13.744,25.889,3.463A1.58,1.58,0,0,0,24.77,3H8.163A3.162,3.162,0,0,0,5,6.163V39.378a3.162,3.162,0,0,0,3.163,3.163H33.469a3.162,3.162,0,0,0,3.163-3.163V14.862A1.58,1.58,0,0,0,36.169,13.744ZM26.3,37.005c-1.8,0-3.794-1.822-5.521-4.316a26.71,26.71,0,0,0-3.552.35C15.213,36.33,12.932,38.9,11.194,38.9a2.708,2.708,0,0,1-2.556-2.75c0-2.709,3.427-4.31,7.214-5.093a43.367,43.367,0,0,0,2.006-3.847,17.139,17.139,0,0,1-1.423-5.9,4.306,4.306,0,0,1,.615-2.429,2.685,2.685,0,0,1,2.309-1.17,2.364,2.364,0,0,1,2.028,1.022,3.593,3.593,0,0,1,.535,2.08,19.226,19.226,0,0,1-1.713,6.355,28.664,28.664,0,0,0,1.716,3.295,17.247,17.247,0,0,1,5.075.69c2.342.784,2.834,2.075,2.834,3.021C29.832,35.534,28.726,37.005,26.3,37.005Zm-.737-21.352a1.582,1.582,0,0,1-1.582-1.582V6.011l9.642,9.642Z" transform="translate(0)" fill="#bfc6d9"/>
    <path id="Path_5630" data-name="Path 5630" d="M8.7,24.826s.09.536.34.536c.6-.043,1.694-1.189,2.9-2.888C9.938,23.149,8.7,24.029,8.7,24.826Z" transform="translate(2.152 11.327)" fill="#bfc6d9"/>
    <path id="Path_5631" data-name="Path 5631" d="M19.486,22.31A12.1,12.1,0,0,0,16.7,21.8c1.017,1.246,2.012,2.05,2.784,2.05.911,0,1.319-.312,1.319-.622C20.809,22.941,20.291,22.581,19.486,22.31Z" transform="translate(6.808 10.937)" fill="#bfc6d9"/>
  </g>
</svg>
