<svg xmlns="http://www.w3.org/2000/svg" width="31.513" height="40.968" viewBox="0 0 31.513 40.968">
  <g id="XMLID_3901_" transform="translate(-63.7 -6)">
    <path id="XMLID_3902_" d="M339.7,6v8.751h8.9Z" transform="translate(-253.386)" fill="#8792b2"/>
    <path id="XMLID_3904_" d="M114,309.6h-1.6v2.606H114a1.326,1.326,0,0,0,1.024-.369,1.3,1.3,0,0,0,.344-.926A1.245,1.245,0,0,0,114,309.6Z" transform="translate(-44.71 -278.724)" fill="#8792b2"/>
    <path id="XMLID_3978_" d="M194.3,309.6h-1.2v5.408h1.2a1.775,1.775,0,0,0,1.409-.6,2.293,2.293,0,0,0,.524-1.54v-1.131a2.231,2.231,0,0,0-.524-1.532A1.781,1.781,0,0,0,194.3,309.6Z" transform="translate(-118.797 -278.724)" fill="#8792b2"/>
    <path id="XMLID_4029_" d="M88.6,256.984h0a7.284,7.284,0,0,0-7.284-7.284H63.7v14.568H81.316A7.284,7.284,0,0,0,88.6,256.984Zm-17.4.59a2.734,2.734,0,0,1-1.909.623H67.7v2.794H66.469v-7.374H69.3a2.737,2.737,0,0,1,1.909.631,2.354,2.354,0,0,1,0,3.327Zm7.456.295a3.043,3.043,0,0,1-.877,2.253,3.082,3.082,0,0,1-2.278.869H73.065v-7.374H75.5a3.088,3.088,0,0,1,2.278.877,3.057,3.057,0,0,1,.877,2.253v1.123ZM81.251,261H80.022v-7.374h4.72v.991h-3.49v2.253h2.974v.991H81.251Z" transform="translate(0 -223.732)" fill="#8792b2"/>
    <path id="XMLID_4032_" d="M101.214,6.3H81V25.252H97.2a8.267,8.267,0,1,1,0,16.535H81v5.457h30.038l.049-31.234h-9.873Z" transform="translate(-15.883 -0.275)" fill="#bfc6d9"/>
  </g>
</svg>
