<svg xmlns="http://www.w3.org/2000/svg" width="54" height="47.425" viewBox="0 0 54 47.425">
  <g id="photo" transform="translate(0 -18.8)">
    <g id="Group_22" data-name="Group 22" transform="translate(0 18.8)">
      <path id="Path_27" data-name="Path 27" d="M6.225,18.8H37.7a6.239,6.239,0,0,1,6.225,6.225V57.411A6.239,6.239,0,0,1,37.7,63.637H6.225A6.239,6.239,0,0,1,0,57.411V24.955A6.225,6.225,0,0,1,6.225,18.8Z" transform="translate(0 -18.8)" fill="#fff"/>
      <path id="Path_28" data-name="Path 28" d="M20.355,124.02l-9.233-9.233L0,125.909v7.345a6.239,6.239,0,0,0,6.225,6.225H37.7a6.239,6.239,0,0,0,6.225-6.225V121.292L33.505,110.8Z" transform="translate(0 -94.712)" fill="#bfc6d9"/>
      <circle id="Ellipse_6" data-name="Ellipse 6" cx="3.917" cy="3.917" r="3.917" transform="translate(16.158 10.912)" fill="#bfc6d9"/>
      <circle id="Ellipse_7" data-name="Ellipse 7" cx="10.073" cy="10.073" r="10.073" transform="translate(33.855 27.28)" fill="#fff"/>
    </g>
    <g id="Group_23" data-name="Group 23" transform="translate(39.171 49.997)">
      <path id="Path_29" data-name="Path 29" d="M242.8,198.669a1.434,1.434,0,0,1,1.469-1.469,1.478,1.478,0,0,1,1.469,1.469v9.513a1.469,1.469,0,1,1-2.938,0Z" transform="translate(-239.512 -197.2)" fill="#bfc6d9"/>
      <path id="Path_30" data-name="Path 30" d="M243.22,199.648a1.434,1.434,0,0,1,2.028-2.029l3.358,3.358a1.434,1.434,0,0,1-2.028,2.029Z" transform="translate(-239.512 -197.2)" fill="#bfc6d9"/>
      <path id="Path_31" data-name="Path 31" d="M227.707,197.62a1.434,1.434,0,1,1,2.029,2.029l-3.288,3.358a1.434,1.434,0,0,1-2.029-2.029Z" transform="translate(-224 -197.2)" fill="#bfc6d9"/>
    </g>
  </g>
</svg>
