<svg xmlns="http://www.w3.org/2000/svg" width="23.351" height="13.919" viewBox="0 0 23.351 13.919">
  <g id="eye" transform="translate(0 -98.725)">
    <path id="Path_3362" data-name="Path 3362" d="M11.675,98.725c-4.461,0-8.507,2.441-11.493,6.406a.924.924,0,0,0,0,1.1c2.985,3.969,7.031,6.41,11.493,6.41s8.507-2.441,11.493-6.406a.924.924,0,0,0,0-1.1C20.183,101.166,16.137,98.725,11.675,98.725ZM12,110.586A4.911,4.911,0,1,1,16.576,106,4.914,4.914,0,0,1,12,110.586Zm-.148-2.264a2.645,2.645,0,1,1,2.47-2.47A2.64,2.64,0,0,1,11.847,108.321Z" transform="translate(0 0)" fill="#363c49"/>
  </g>
</svg>
