<svg xmlns="http://www.w3.org/2000/svg" width="29" height="29" viewBox="0 0 29 29"><defs><style>.a,.b{fill:#363c49;}.b{stroke:#363c49;}</style></defs><g transform="translate(0.5 0.5)"><path class="a" d="M237,363.835a1.167,1.167,0,1,1-1.167-1.167A1.167,1.167,0,0,1,237,363.835Zm0,0" transform="translate(-221.835 -342.835)"/><path class="b" d="M14,28A14,14,0,1,1,28,14,14.015,14.015,0,0,1,14,28ZM14,1.75A12.25,12.25,0,1,0,26.25,14,12.263,12.263,0,0,0,14,1.75Zm0,0"/><path class="a" d="M170.29,97.874a.875.875,0,0,1-.875-.875V95.82a2.631,2.631,0,0,1,1.752-2.476A3.62,3.62,0,0,0,173.5,90.29a3.208,3.208,0,1,0-6.417,0,.875.875,0,0,1-1.75,0,4.958,4.958,0,1,1,9.917,0A5.368,5.368,0,0,1,171.75,95a.875.875,0,0,0-.584.826V97A.875.875,0,0,1,170.29,97.874Zm0,0" transform="translate(-156.29 -80.665)"/></g></svg>