<svg xmlns="http://www.w3.org/2000/svg" width="27.339" height="28.5" viewBox="0 0 27.339 28.5">
  <g id="_5084640_accept_check_ok_prosess_icon" data-name="5084640_accept_check_ok_prosess_icon" transform="translate(-2.321 -1.75)">
    <path id="Path_5624" data-name="Path 5624" d="M26.61,2H10.74a2.9,2.9,0,0,0-.6.07A7.14,7.14,0,0,0,9.21,2,6.62,6.62,0,0,0,7.94,15.12V27.2a2.81,2.81,0,0,0,2.8,2.8H26.61a2.8,2.8,0,0,0,2.8-2.8V4.8A2.8,2.8,0,0,0,26.61,2ZM4.46,8.62a4.75,4.75,0,1,1,1.388,3.365A4.76,4.76,0,0,1,4.46,8.62ZM27.54,27.2a.93.93,0,0,1-.93.93H10.74a.93.93,0,0,1-.93-.93v-12a6.56,6.56,0,0,0,4.14-2,1,1,0,0,0,.24,0h9a.87.87,0,1,0,0-1.74h-8a6.6,6.6,0,0,0-1.34-7.67h12.8a.93.93,0,0,1,.93.93Z" fill="#363c49" stroke="#363c49" stroke-width="0.5"/>
    <path id="Path_5625" data-name="Path 5625" d="M12.2,6.41a.92.92,0,0,0-1.32,0L8.44,8.86,7.54,8A.93.93,0,1,0,6.22,9.28l1.56,1.56a.93.93,0,0,0,.66.27,1,1,0,0,0,.66-.27l3.1-3.11a.92.92,0,0,0,0-1.32Z" fill="#363c49" stroke="#363c49" stroke-width="0.5"/>
    <path id="Path_5626" data-name="Path 5626" d="M23.16,15.13h-9a.87.87,0,0,0,0,1.74h9a.87.87,0,1,0,0-1.74Z" fill="#363c49" stroke="#363c49" stroke-width="0.5"/>
    <path id="Path_5627" data-name="Path 5627" d="M23.16,18.72h-9a.87.87,0,0,0,0,1.74h9a.87.87,0,1,0,0-1.74Z" fill="#363c49" stroke="#363c49" stroke-width="0.5"/>
  </g>
</svg>
