<svg xmlns="http://www.w3.org/2000/svg" width="50" height="50" viewBox="0 0 50 50">
  <g id="Group_4072" data-name="Group 4072" transform="translate(-995.416 -376.863)">
    <circle id="Ellipse_1297" data-name="Ellipse 1297" cx="25" cy="25" r="25" transform="translate(995.416 376.863)" fill="#efefef"/>
    <g id="Group_394" data-name="Group 394" transform="translate(653.999 -471.139)">
      <g id="trophy_2_" data-name="trophy (2)" transform="translate(354 862)">
        <path id="Path_804" data-name="Path 804" d="M24.006,22.444a1.358,1.358,0,0,0-1-.411H18.782V20.625a2.354,2.354,0,0,0-2.348-2.348H7.982a2.354,2.354,0,0,0-2.348,2.348v1.409H1.409a1.358,1.358,0,0,0-1,.411,1.358,1.358,0,0,0-.411,1V25.32a4.176,4.176,0,0,0,.609,2.1,6.991,6.991,0,0,0,1.643,1.907,9.126,9.126,0,0,0,2.538,1.431,9.952,9.952,0,0,0,3.162.653A7.82,7.82,0,0,0,9.347,32.8a2.74,2.74,0,0,1,.77,1.064,3.716,3.716,0,0,1,.213,1.313,2.027,2.027,0,0,1-.448,1.335,1.749,1.749,0,0,1-1.431.543,3.105,3.105,0,0,0-1.959.668,2.047,2.047,0,0,0-.858,1.68v.939a.452.452,0,0,0,.469.47H18.312a.451.451,0,0,0,.469-.47v-.939a2.046,2.046,0,0,0-.859-1.68,3.105,3.105,0,0,0-1.959-.668,1.748,1.748,0,0,1-1.43-.543,2.028,2.028,0,0,1-.447-1.335,3.715,3.715,0,0,1,.212-1.313,2.748,2.748,0,0,1,.77-1.064,7.82,7.82,0,0,0,1.394-1.394,9.955,9.955,0,0,0,3.163-.653,9.13,9.13,0,0,0,2.538-1.431,6.994,6.994,0,0,0,1.643-1.907,4.177,4.177,0,0,0,.609-2.1V23.442A1.36,1.36,0,0,0,24.006,22.444ZM3.265,27.7A3.367,3.367,0,0,1,1.878,25.32V23.911H5.635A12.969,12.969,0,0,0,6.72,29.355,7.3,7.3,0,0,1,3.265,27.7ZM22.538,25.32A3.367,3.367,0,0,1,21.152,27.7,7.3,7.3,0,0,1,17.7,29.355a12.969,12.969,0,0,0,1.086-5.444h3.756Z" transform="translate(0 -18.277)" fill="#363c49"/>
      </g>
    </g>
  </g>
</svg>
