<svg xmlns="http://www.w3.org/2000/svg" width="40" height="40" viewBox="0 0 40 40"><defs><style>.a{fill:#ecedf2;}.b{fill:#2b303b;}</style></defs><g transform="translate(-1291 -728)"><rect class="a" width="40" height="40" rx="19" transform="translate(1291 728)"/><path class="b" d="M11.078,22.156A11.078,11.078,0,0,1,3.245,3.245,11.078,11.078,0,0,1,18.912,18.912a11.006,11.006,0,0,1-7.834,3.245Zm0-20.426a9.347,9.347,0,1,0,9.347,9.347A9.358,9.358,0,0,0,11.078,1.731ZM15.135,12.99a.865.865,0,0,0-1.195.266,3.809,3.809,0,0,1-2.9,1.676,3.809,3.809,0,0,1-2.9-1.676.865.865,0,0,0-1.46.929,5.564,5.564,0,0,0,4.365,2.478A5.564,5.564,0,0,0,15.4,14.185a.865.865,0,0,0-.266-1.195ZM7.27,7.14A1.082,1.082,0,1,1,6.188,8.222,1.082,1.082,0,0,1,7.27,7.14Zm6.491,1.082A1.082,1.082,0,1,0,14.843,7.14,1.082,1.082,0,0,0,13.761,8.222Z" transform="translate(1300 737)"/></g></svg>