<svg xmlns="http://www.w3.org/2000/svg" width="55.586" height="37.589" viewBox="0 0 55.586 37.589">
  <g id="upload" transform="translate(0 -82.888)">
    <path id="Path_32" data-name="Path 32" d="M37.039,111.1a9.253,9.253,0,0,1,9.219-9.266,9.158,9.158,0,0,1,6.172,2.389V83.558a.671.671,0,0,0-.667-.67H.667a.671.671,0,0,0-.667.67v33.651a.671.671,0,0,0,.667.67H39.981a9.261,9.261,0,0,1-2.942-6.777Z" transform="translate(0)" fill="#bfc6d9"/>
    <path id="Path_33" data-name="Path 33" d="M3.523,117.209V83.558a.671.671,0,0,1,.667-.67H.667a.671.671,0,0,0-.667.67v33.651a.671.671,0,0,0,.667.67H4.19A.671.671,0,0,1,3.523,117.209Z" transform="translate(0 0)" fill="#bfc6d9"/>
    <path id="Path_34" data-name="Path 34" d="M129.177,111.1a9.275,9.275,0,0,1,4.17-7.747V82.889H103.36v34.992h28.759A9.262,9.262,0,0,1,129.177,111.1Z" transform="translate(-92.138 -0.001)" fill="#fff"/>
    <path id="Path_35" data-name="Path 35" d="M103.36,82.889h3.473v34.992H103.36Z" transform="translate(-92.139 -0.001)" fill="#fff"/>
    <path id="Path_36" data-name="Path 36" d="M186.925,176.659c0-.308.216-.43.48-.272l12.58,7.552a.308.308,0,0,1,0,.576l-12.58,7.551c-.264.158-.48.036-.48-.272Z" transform="translate(-166.631 -83.286)" fill="#bfc6d9"/>
    <path id="Path_37" data-name="Path 37" d="M190.4,178.184l-2.993-1.8c-.264-.158-.48-.036-.48.272v15.135c0,.308.216.43.48.272l2.993-1.8Z" transform="translate(-166.631 -83.286)" fill="#a8b1c9"/>
    <g id="Group_24" data-name="Group 24" transform="translate(3.859 87.105)">
      <path id="Path_38" data-name="Path 38" d="M39.232,125.088a.337.337,0,0,1-.336.336h-3.02a.337.337,0,0,1-.336-.336v-3.022a.337.337,0,0,1,.336-.336H38.9a.337.337,0,0,1,.336.336Z" transform="translate(-35.541 -121.731)" fill="#fff"/>
      <path id="Path_39" data-name="Path 39" d="M39.232,195.187a.337.337,0,0,1-.336.336h-3.02a.337.337,0,0,1-.336-.336v-3.022a.337.337,0,0,1,.336-.336H38.9a.337.337,0,0,1,.336.336Z" transform="translate(-35.541 -184.219)" fill="#fff"/>
      <path id="Path_40" data-name="Path 40" d="M39.232,265.285a.337.337,0,0,1-.336.336h-3.02a.337.337,0,0,1-.336-.336v-3.022a.337.337,0,0,1,.336-.336H38.9a.337.337,0,0,1,.336.336Z" transform="translate(-35.541 -246.707)" fill="#fff"/>
      <path id="Path_41" data-name="Path 41" d="M39.232,335.383a.337.337,0,0,1-.336.336h-3.02a.337.337,0,0,1-.336-.336v-3.022a.337.337,0,0,1,.336-.336H38.9a.337.337,0,0,1,.336.336Z" transform="translate(-35.541 -309.194)" fill="#fff"/>
      <path id="Path_42" data-name="Path 42" d="M418.34,125.088a.337.337,0,0,1-.336.336h-3.02a.337.337,0,0,1-.335-.336v-3.022a.337.337,0,0,1,.335-.336H418a.337.337,0,0,1,.336.336Z" transform="translate(-373.49 -121.731)" fill="#fff"/>
      <path id="Path_43" data-name="Path 43" d="M418.34,195.187a.337.337,0,0,1-.336.336h-3.02a.337.337,0,0,1-.335-.336v-3.022a.337.337,0,0,1,.335-.336H418a.337.337,0,0,1,.336.336Z" transform="translate(-373.49 -184.219)" fill="#fff"/>
    </g>
    <ellipse id="Ellipse_8" data-name="Ellipse 8" cx="9.328" cy="9.374" rx="9.328" ry="9.374" transform="translate(36.93 101.728)" fill="#8792b2"/>
    <path id="Path_44" data-name="Path 44" d="M343.66,265.8a9.364,9.364,0,0,1,7.577-9.207,9.374,9.374,0,1,0,0,18.414A9.363,9.363,0,0,1,343.66,265.8Z" transform="translate(-303.229 -154.695)" fill="#8792b2"/>
    <path id="Path_45" data-name="Path 45" d="M391.666,302.644a.447.447,0,0,1-.447-.448v-6.023h-2.1a.448.448,0,0,1-.334-.746l3.614-4.049a.447.447,0,0,1,.667,0l3.614,4.049a.448.448,0,0,1-.334.746h-2.1V302.2a.448.448,0,0,1-.447.448Z" transform="translate(-346.47 -185.722)" fill="#fff"/>
  </g>
</svg>
