<svg xmlns="http://www.w3.org/2000/svg" width="19.581" height="16.967" viewBox="0 0 19.581 16.967">
  <g id="Layer_42" data-name="Layer 42" transform="translate(-0.994 -3)">
    <path id="Path_5621" data-name="Path 5621" d="M1.65,19.967A.653.653,0,0,1,1,19.243l.5-4.568a.653.653,0,0,1,.189-.385L12.366,3.614a2.088,2.088,0,0,1,2.956,0l2.03,2.03a2.088,2.088,0,0,1,0,2.956L6.682,19.269a.653.653,0,0,1-.385.189l-4.568.5Zm4.568-1.162ZM2.779,15.04l-.392,3.537,3.537-.392L16.431,7.679a.783.783,0,0,0,0-1.109L14.4,4.534a.783.783,0,0,0-1.109,0Z" fill="#2d6a9f"/>
    <path id="Path_5622" data-name="Path 5622" d="M20.494,11.349a.653.653,0,0,1-.463-.189L15.978,7.094a.655.655,0,1,1,.927-.927l4.066,4.066a.653.653,0,0,1-.476,1.116Z" transform="translate(-5.139 -1.034)" fill="#2d6a9f"/>
    <rect id="Rectangle_4842" data-name="Rectangle 4842" width="7.185" height="1.305" transform="translate(5.762 14.283) rotate(-45)" fill="#2d6a9f"/>
    <path id="Path_5623" data-name="Path 5623" d="M24.094,28.305H13.653a.653.653,0,1,1,0-1.305H24.094a.653.653,0,1,1,0,1.305Z" transform="translate(-4.171 -8.338)" fill="#2d6a9f"/>
  </g>
</svg>
