<?xml version="1.0" standalone="no"?>
<!DOCTYPE svg PUBLIC "-//W3C//DTD SVG 20010904//EN"
 "http://www.w3.org/TR/2001/REC-SVG-20010904/DTD/svg10.dtd">
<svg version="1.0" xmlns="http://www.w3.org/2000/svg"
 width="1024.000000pt" height="1024.000000pt" viewBox="0 0 1024.000000 1024.000000"
 preserveAspectRatio="xMidYMid meet">
<metadata>
Created by potrace 1.16, written by Peter Selinger 2001-2019
</metadata>
<g transform="translate(0.000000,1024.000000) scale(0.100000,-0.100000)"
fill="#c74229" stroke="none">
<path d="M4765 10234 c-146 -12 -434 -48 -554 -70 -891 -164 -1676 -531 -2381
-1113 -148 -122 -519 -493 -641 -641 -596 -721 -972 -1538 -1123 -2440 -53
-316 -61 -417 -61 -850 0 -433 8 -534 61 -850 249 -1490 1135 -2781 2443
-3562 168 -101 522 -275 705 -347 489 -194 988 -310 1510 -351 193 -15 644
-12 846 5 1145 101 2214 577 3045 1358 317 298 560 585 789 934 483 737 762
1560 827 2441 17 240 7 738 -21 966 -120 1010 -516 1927 -1171 2711 -193 230
-525 549 -784 751 -132 102 -439 308 -585 392 -602 343 -1255 558 -1956 643
-147 17 -244 22 -539 24 -198 1 -382 1 -410 -1z m-1093 -2705 c34 -11 76 -30
93 -41 16 -12 324 -314 682 -672 l653 -651 657 656 c362 361 674 665 693 677
105 61 263 68 380 17 59 -26 95 -58 398 -359 184 -182 347 -349 362 -372 77
-110 92 -276 35 -404 -27 -61 -68 -105 -689 -728 l-661 -662 656 -658 c361
-361 665 -673 677 -692 37 -64 55 -146 50 -236 -4 -70 -10 -94 -41 -156 -33
-67 -65 -102 -374 -410 -309 -308 -344 -340 -408 -370 -65 -31 -77 -33 -175
-33 -188 0 -131 -45 -897 719 l-663 661 -663 -661 c-766 -764 -709 -719 -897
-719 -177 0 -172 -4 -573 394 -186 185 -351 356 -367 381 -45 71 -63 149 -58
249 8 160 -26 119 722 869 l661 662 -656 658 c-361 361 -665 673 -677 692 -38
65 -55 146 -50 239 8 151 12 157 392 539 182 184 351 348 375 364 97 68 246
87 363 47z"/>
</g>
</svg>
